<?xml version="1.0" encoding="utf-8"?>
<!-- Generator: Adobe Illustrator 18.0.0, SVG Export Plug-In . SVG Version: 6.00 Build 0)  -->
<!DOCTYPE svg PUBLIC "-//W3C//DTD SVG 1.1//EN" "http://www.w3.org/Graphics/SVG/1.1/DTD/svg11.dtd">
<svg version="1.1" id="Layer_1" xmlns="http://www.w3.org/2000/svg" xmlns:xlink="http://www.w3.org/1999/xlink" x="0px" y="0px"
	 viewBox="0 0 400 400" enable-background="new 0 0 400 400" xml:space="preserve">
<g>
	<g>
		<g>
			<path fill="#F6E9E5" d="M189.3,237.6c0,5-4.1,9.1-9.1,9.1L71.8,212.5c-5,0-9.1-4.1-9.1-9.1l0,0c0-5,4.1-9.1,9.1-9.1l108.5,34.2
				C185.3,228.6,189.3,232.6,189.3,237.6L189.3,237.6z"/>
			<path fill="#F6E9E5" d="M189.3,237.6c-1.6,4.7-6.8,7.3-11.5,5.6L75.2,173.8c-4.7-1.6-7.2-6.8-5.6-11.5l0,0
				c1.6-4.7,6.8-7.2,11.5-5.6l102.6,69.5C188.5,227.8,191,232.9,189.3,237.6L189.3,237.6z"/>
			<path fill="#F6E9E5" d="M189.3,237.6c-2.4,4.4-7.9,6-12.3,3.6l-95.2-86.4c-4.4-2.4-6-7.9-3.6-12.3l0,0c2.4-4.4,7.9-6,12.3-3.6
				l95.2,86.4C190.1,227.7,191.7,233.3,189.3,237.6L189.3,237.6z"/>
			<path fill="#F6E9E5" d="M189.3,237.6c-3.1,3.9-8.8,4.6-12.7,1.5L91.2,138c-3.9-3.1-4.6-8.8-1.5-12.7l0,0
				c3.1-3.9,8.8-4.6,12.7-1.5l85.4,101.2C191.7,228,192.4,233.7,189.3,237.6L189.3,237.6z"/>
			<path fill="#F6E9E5" d="M189.3,237.6c-3.7,3.4-9.4,3.1-12.8-0.6l-73-114.5c-3.4-3.7-3.1-9.4,0.6-12.8l0,0
				c3.7-3.4,9.4-3.1,12.8,0.6l73,114.5C193.3,228.5,193,234.3,189.3,237.6L189.3,237.6z"/>
			<path fill="#F6E9E5" d="M189.3,237.6c-4.2,2.7-9.8,1.5-12.5-2.7L118,109.6c-2.7-4.2-1.5-9.8,2.7-12.5l0,0
				c4.2-2.7,9.8-1.5,12.5,2.7L192,225.1C194.8,229.3,193.5,234.9,189.3,237.6L189.3,237.6z"/>
			<path fill="#F6E9E5" d="M189.3,237.6c-4.6,2-9.9-0.2-11.9-4.8L135,98.8c-2-4.6,0.2-9.9,4.8-11.9l0,0c4.6-2,9.9,0.2,11.9,4.8
				l42.5,134.1C196.1,230.4,193.9,235.7,189.3,237.6L189.3,237.6z"/>
			<path fill="#F6E9E5" d="M190.4,237.1c-4.9,1.2-9.8-1.7-11-6.6L153.1,91c-1.2-4.9,1.7-9.8,6.6-11l0,0c4.9-1.2,9.8,1.7,11,6.6
				L197,226.1C198.2,230.9,195.3,235.9,190.4,237.1L190.4,237.1z"/>
			<path fill="#F6E9E5" d="M190.3,236.7c-5,0.3-9.3-3.4-9.6-8.4l-7.2-142.5c-0.3-5,3.4-9.3,8.4-9.6l0,0c5-0.3,9.3,3.4,9.7,8.4
				l7.2,142.5C199.1,232,195.3,236.3,190.3,236.7L190.3,236.7z"/>
			<path fill="#F6E9E5" d="M189.3,237.6c-0.8,4.9-5.5,8.3-10.4,7.4L71.9,193c-4.9-0.8-8.3-5.5-7.4-10.4l0,0
				c0.8-4.9,5.5-8.3,10.4-7.4l107,52.1C186.8,228,190.2,232.7,189.3,237.6L189.3,237.6z"/>
			<path fill="#F6E9E5" d="M192.2,237.6c0,5,4.1,9.1,9.1,9.1l108.5-34.2c5,0,9.1-4.1,9.1-9.1l0,0c0-5-4.1-9.1-9.1-9.1l-108.5,34.2
				C196.3,228.6,192.2,232.6,192.2,237.6L192.2,237.6z"/>
			<path fill="#F6E9E5" d="M192.2,237.6c1.6,4.7,6.8,7.3,11.5,5.6l102.6-69.5c4.7-1.6,7.2-6.8,5.6-11.5l0,0
				c-1.6-4.7-6.8-7.2-11.5-5.6l-102.6,69.5C193.1,227.8,190.6,232.9,192.2,237.6L192.2,237.6z"/>
			<path fill="#F6E9E5" d="M192.2,237.6c2.4,4.4,7.9,6,12.3,3.6l95.2-86.4c4.4-2.4,6-7.9,3.6-12.3l0,0c-2.4-4.4-7.9-6-12.3-3.6
				l-95.2,86.4C191.5,227.7,189.8,233.3,192.2,237.6L192.2,237.6z"/>
			<path fill="#F6E9E5" d="M192.2,237.6c3.1,3.9,8.8,4.6,12.7,1.5L290.3,138c3.9-3.1,4.6-8.8,1.5-12.7l0,0
				c-3.1-3.9-8.8-4.6-12.7-1.5l-85.4,101.2C189.9,228,189.2,233.7,192.2,237.6L192.2,237.6z"/>
			<path fill="#F6E9E5" d="M192.2,237.6c3.7,3.4,9.4,3.1,12.8-0.6l73-114.5c3.4-3.7,3.1-9.4-0.6-12.8l0,0c-3.7-3.4-9.4-3.1-12.8,0.6
				l-73,114.5C188.3,228.5,188.6,234.3,192.2,237.6L192.2,237.6z"/>
			<path fill="#F6E9E5" d="M192.2,237.6c4.2,2.7,9.8,1.5,12.5-2.7l58.8-125.4c2.7-4.2,1.5-9.8-2.7-12.5l0,0
				c-4.2-2.7-9.8-1.5-12.5,2.7l-58.8,125.4C186.8,229.3,188,234.9,192.2,237.6L192.2,237.6z"/>
			<path fill="#F6E9E5" d="M192.2,237.6c4.6,2,9.9-0.2,11.9-4.8l42.5-134.1c2-4.6-0.2-9.9-4.8-11.9l0,0c-4.6-2-9.9,0.2-11.9,4.8
				l-42.5,134.1C185.5,230.4,187.6,235.7,192.2,237.6L192.2,237.6z"/>
			<path fill="#F6E9E5" d="M191.2,237.1c4.9,1.2,9.8-1.7,11-6.6L228.5,91c1.2-4.9-1.7-9.8-6.6-11l0,0c-4.9-1.2-9.8,1.7-11,6.6
				l-26.3,139.5C183.4,230.9,186.3,235.9,191.2,237.1L191.2,237.1z"/>
			<path fill="#F6E9E5" d="M191.3,236.7c5,0.3,9.3-3.4,9.6-8.4l7.2-142.5c0.3-5-3.4-9.3-8.4-9.6l0,0c-5-0.3-9.3,3.4-9.6,8.4
				L182.9,227C182.5,232,186.3,236.3,191.3,236.7L191.3,236.7z"/>
			<path fill="#F6E9E5" d="M192.2,237.6c0.8,4.9,5.5,8.3,10.4,7.4l107-52.1c4.9-0.8,8.3-5.5,7.4-10.4l0,0c-0.8-4.9-5.5-8.3-10.4-7.4
				l-107,52.1C194.8,228,191.4,232.7,192.2,237.6L192.2,237.6z"/>
		</g>
		<g>
			<path fill="#3C3C3B" d="M189.5,236.6c0,4.6-3.8,8.4-8.4,8.4L80.7,213.4c-4.6,0-8.4-3.8-8.4-8.4l0,0c0-4.6,3.8-8.4,8.4-8.4
				l100.4,31.7C185.7,228.3,189.5,232,189.5,236.6L189.5,236.6z"/>
			<path fill="#3C3C3B" d="M189.5,236.6c-1.5,4.4-6.3,6.7-10.6,5.2l-94.9-64.3c-4.4-1.5-6.7-6.3-5.2-10.7l0,0
				c1.5-4.4,6.3-6.7,10.7-5.2l94.9,64.3C188.6,227.5,191,232.3,189.5,236.6L189.5,236.6z"/>
			<path fill="#3C3C3B" d="M189.5,236.6c-2.2,4.1-7.3,5.5-11.4,3.3l-88-79.9c-4.1-2.2-5.5-7.3-3.3-11.4l0,0
				c2.2-4.1,7.3-5.5,11.4-3.3l88,79.9C190.2,227.5,191.7,232.6,189.5,236.6L189.5,236.6z"/>
			<path fill="#3C3C3B" d="M189.5,236.6c-2.9,3.6-8.1,4.3-11.8,1.4l-79-93.6c-3.6-2.9-4.3-8.1-1.4-11.8l0,0
				c2.9-3.6,8.1-4.3,11.8-1.4l79,93.6C191.7,227.7,192.3,233,189.5,236.6L189.5,236.6z"/>
			<path fill="#3C3C3B" d="M189.5,236.6c-3.4,3.1-8.7,2.9-11.8-0.6l-67.5-105.9c-3.1-3.4-2.9-8.7,0.6-11.8l0,0
				c3.4-3.1,8.7-2.9,11.8,0.6L190,224.8C193.1,228.2,192.9,233.5,189.5,236.6L189.5,236.6z"/>
			<path fill="#3C3C3B" d="M189.5,236.6c-3.9,2.5-9.1,1.4-11.6-2.5l-54.4-116c-2.5-3.9-1.4-9.1,2.5-11.6l0,0
				c3.9-2.5,9.1-1.4,11.6,2.5l54.4,116C194.5,228.9,193.3,234.1,189.5,236.6L189.5,236.6z"/>
			<path fill="#3C3C3B" d="M189.5,236.6c-4.3,1.8-9.2-0.2-11-4.4l-39.3-124c-1.8-4.3,0.2-9.2,4.4-11l0,0c4.3-1.8,9.2,0.2,11,4.4
				l39.3,124C195.7,229.9,193.7,234.8,189.5,236.6L189.5,236.6z"/>
			<path fill="#3C3C3B" d="M190.4,236.1c-4.5,1.1-9-1.6-10.2-6.1L156,101c-1.1-4.5,1.6-9,6.1-10.2l0,0c4.5-1.1,9,1.6,10.2,6.1
				l24.3,129C197.7,230.4,194.9,235,190.4,236.1L190.4,236.1z"/>
			<path fill="#3C3C3B" d="M190.3,235.7c-4.6,0.3-8.6-3.2-8.9-7.8l-6.7-131.8c-0.3-4.6,3.2-8.6,7.8-8.9l0,0c4.6-0.3,8.6,3.2,8.9,7.8
				l6.7,131.8C198.4,231.4,194.9,235.4,190.3,235.7L190.3,235.7z"/>
			<path fill="#3C3C3B" d="M189.5,236.6c-0.8,4.6-5.1,7.6-9.7,6.9l-99-48.2c-4.6-0.8-7.6-5.1-6.9-9.6l0,0c0.8-4.6,5.1-7.6,9.6-6.9
				l99,48.2C187.1,227.8,190.2,232.1,189.5,236.6L189.5,236.6z"/>
			<path fill="#3C3C3B" d="M192.1,236.6c0,4.6,3.8,8.4,8.4,8.4l100.4-31.7c4.6,0,8.4-3.8,8.4-8.4l0,0c0-4.6-3.8-8.4-8.4-8.4
				l-100.4,31.7C195.9,228.3,192.1,232,192.1,236.6L192.1,236.6z"/>
			<path fill="#3C3C3B" d="M192.1,236.6c1.5,4.4,6.3,6.7,10.6,5.2l94.9-64.3c4.4-1.5,6.7-6.3,5.2-10.7l0,0
				c-1.5-4.4-6.3-6.7-10.7-5.2L197.3,226C193,227.5,190.6,232.3,192.1,236.6L192.1,236.6z"/>
			<path fill="#3C3C3B" d="M192.1,236.6c2.2,4.1,7.3,5.5,11.4,3.3l88-79.9c4.1-2.2,5.5-7.3,3.3-11.4l0,0c-2.2-4.1-7.3-5.5-11.4-3.3
				l-88,79.9C191.4,227.5,189.9,232.6,192.1,236.6L192.1,236.6z"/>
			<path fill="#3C3C3B" d="M192.1,236.6c2.9,3.6,8.1,4.3,11.8,1.4l79-93.6c3.6-2.9,4.3-8.1,1.4-11.8l0,0c-2.9-3.6-8.1-4.3-11.8-1.4
				l-79,93.6C189.9,227.7,189.3,233,192.1,236.6L192.1,236.6z"/>
			<path fill="#3C3C3B" d="M192.1,236.6c3.4,3.1,8.7,2.9,11.8-0.6l67.5-105.9c3.1-3.4,2.9-8.7-0.6-11.8l0,0
				c-3.4-3.1-8.7-2.9-11.8,0.6l-67.5,105.9C188.5,228.2,188.7,233.5,192.1,236.6L192.1,236.6z"/>
			<path fill="#3C3C3B" d="M192.1,236.6c3.9,2.5,9.1,1.4,11.6-2.5l54.4-116c2.5-3.9,1.4-9.1-2.5-11.6l0,0c-3.9-2.5-9.1-1.4-11.6,2.5
				l-54.4,116C187.1,228.9,188.3,234.1,192.1,236.6L192.1,236.6z"/>
			<path fill="#3C3C3B" d="M192.1,236.6c4.3,1.8,9.2-0.2,11-4.4l39.3-124c1.8-4.3-0.2-9.2-4.4-11l0,0c-4.3-1.8-9.2,0.2-11,4.4
				l-39.3,124C185.9,229.9,187.9,234.8,192.1,236.6L192.1,236.6z"/>
			<path fill="#3C3C3B" d="M191.2,236.1c4.5,1.1,9-1.6,10.2-6.1l24.3-129c1.1-4.5-1.6-9-6.1-10.2l0,0c-4.5-1.1-9,1.6-10.2,6.1
				l-24.3,129C183.9,230.4,186.7,235,191.2,236.1L191.2,236.1z"/>
			<path fill="#3C3C3B" d="M191.3,235.7c4.6,0.3,8.6-3.2,8.9-7.8l6.7-131.8c0.3-4.6-3.2-8.6-7.8-8.9l0,0c-4.6-0.3-8.6,3.2-8.9,7.8
				l-6.7,131.8C183.1,231.4,186.6,235.4,191.3,235.7L191.3,235.7z"/>
			<path fill="#3C3C3B" d="M192.1,236.6c0.8,4.6,5.1,7.6,9.6,6.9l99-48.2c4.6-0.8,7.6-5.1,6.9-9.6l0,0c-0.8-4.6-5.1-7.6-9.6-6.9
				L199,227C194.5,227.8,191.4,232.1,192.1,236.6L192.1,236.6z"/>
		</g>
	</g>
	<rect x="177.3" y="267.9" fill="#3C3C3B" width="8.2" height="40.7"/>
	<rect x="199.7" y="267.9" fill="#3C3C3B" width="8.2" height="40.7"/>
	<path fill="#3C3C3B" d="M195.5,314.5c-0.6-3.8-3.4-6.6-6.7-6.6h-14.7c-3.3,0-6,2.9-6.7,6.6H195.5z"/>
	<path fill="#3C3C3B" d="M220.4,314.5c-0.6-3.8-3.4-6.6-6.7-6.6h-14.8c-3.3,0-6,2.9-6.7,6.6H220.4z"/>
	<path fill="#F4E2BD" d="M192.2,147.2c-0.6,0-1.2,0-1.8,0l0,0c0,0,0,0,0,0c-9.5,0.2-18.6,2.4-26.8,6c0,0,0,0,0,0c-1,0.5-2,0.9-3,1.4
		c0,0,0,0,0,0c-1,0.5-2,1-2.9,1.6c0,0-0.1,0-0.1,0c-0.9,0.5-1.9,1.1-2.8,1.7c0,0-0.1,0.1-0.1,0.1c-0.9,0.6-1.8,1.1-2.6,1.7
		c-0.1,0-0.1,0.1-0.2,0.1c-0.8,0.6-1.7,1.2-2.5,1.8c-0.1,0.1-0.2,0.1-0.2,0.2c-0.8,0.6-1.6,1.2-2.3,1.9c-0.1,0.1-0.2,0.2-0.3,0.3
		c-0.7,0.6-1.5,1.3-2.2,1.9c-0.1,0.1-0.2,0.2-0.3,0.3c-0.7,0.7-1.4,1.3-2,2c-0.1,0.1-0.3,0.3-0.4,0.4c-0.6,0.7-1.3,1.3-1.9,2
		c-0.2,0.2-0.3,0.3-0.4,0.5c-0.6,0.7-1.2,1.3-1.7,2c-0.2,0.2-0.3,0.4-0.5,0.6c-0.5,0.7-1.1,1.3-1.6,2c-0.2,0.2-0.3,0.5-0.5,0.7
		c-0.5,0.7-1,1.3-1.4,2c-0.2,0.3-0.4,0.6-0.5,0.8c-0.4,0.7-0.9,1.3-1.3,2c-0.2,0.3-0.4,0.6-0.5,0.9c-0.4,0.7-0.8,1.3-1.1,2
		c-0.2,0.4-0.4,0.7-0.5,1.1c-0.3,0.6-0.7,1.3-1,1.9c-0.2,0.4-0.4,0.8-0.5,1.2c-0.3,0.6-0.6,1.3-0.8,1.9c-0.2,0.4-0.3,0.9-0.5,1.3
		c-0.2,0.6-0.5,1.2-0.7,1.9c-0.2,0.5-0.3,1-0.5,1.4c-0.2,0.6-0.4,1.2-0.6,1.8c-0.2,0.5-0.3,1-0.4,1.6c-0.2,0.6-0.3,1.2-0.5,1.8
		c-0.1,0.6-0.3,1.1-0.4,1.7c-0.1,0.6-0.3,1.1-0.4,1.7c-0.1,0.6-0.2,1.2-0.3,1.8c-0.1,0.5-0.2,1.1-0.3,1.6c-0.1,0.7-0.2,1.3-0.3,2
		c-0.1,0.5-0.1,1-0.2,1.5c-0.1,0.8-0.1,1.5-0.2,2.3c0,0.4-0.1,0.8-0.1,1.3c-0.1,1.2-0.1,2.4-0.1,3.6c0,1.2,0,2.4,0.1,3.6
		c0,0.4,0.1,0.8,0.1,1.3c0.1,0.8,0.1,1.5,0.2,2.3c0,0.5,0.1,1,0.2,1.5c0.1,0.7,0.2,1.3,0.3,2c0.1,0.5,0.2,1.1,0.3,1.6
		c0.1,0.6,0.2,1.2,0.3,1.8c0.1,0.6,0.3,1.1,0.4,1.7c0.1,0.6,0.2,1.1,0.4,1.7c0.1,0.6,0.3,1.2,0.5,1.7c0.2,0.5,0.3,1.1,0.4,1.6
		c0.2,0.6,0.4,1.2,0.6,1.8c0.2,0.5,0.3,1,0.5,1.4c0.2,0.6,0.5,1.2,0.7,1.9c0.2,0.4,0.3,0.9,0.5,1.3c0.3,0.6,0.6,1.3,0.8,1.9
		c0.2,0.4,0.3,0.8,0.5,1.2c0.3,0.7,0.6,1.3,1,1.9c0.2,0.4,0.4,0.7,0.5,1.1c0.4,0.7,0.7,1.3,1.1,2c0.2,0.3,0.4,0.6,0.5,0.9
		c0.4,0.7,0.8,1.3,1.3,2c0.2,0.3,0.4,0.6,0.5,0.8c0.5,0.7,0.9,1.3,1.4,2c0.2,0.2,0.3,0.5,0.5,0.7c0.5,0.7,1,1.4,1.6,2
		c0.2,0.2,0.3,0.4,0.5,0.6c0.6,0.7,1.1,1.4,1.7,2c0.1,0.2,0.3,0.3,0.4,0.5c0.6,0.7,1.2,1.4,1.9,2c0.1,0.1,0.3,0.3,0.4,0.4
		c0.7,0.7,1.3,1.3,2,2c0.1,0.1,0.2,0.2,0.3,0.3c0.7,0.7,1.4,1.3,2.2,1.9c0.1,0.1,0.2,0.2,0.3,0.3c0.8,0.7,1.6,1.3,2.3,1.9
		c0.1,0.1,0.2,0.1,0.2,0.2c0.8,0.6,1.6,1.2,2.5,1.8c0.1,0,0.1,0.1,0.2,0.1c0.9,0.6,1.7,1.2,2.6,1.7c0,0,0.1,0.1,0.1,0.1
		c0.9,0.6,1.8,1.1,2.8,1.7c0,0,0.1,0,0.1,0c1,0.5,1.9,1.1,2.9,1.6c0,0,0,0,0,0c1,0.5,2,1,3,1.4c0,0,0,0,0,0c8.2,3.7,17.3,5.8,26.8,6
		c0,0,0,0,0,0l0,0c0.6,0,1.2,0,1.8,0c39,0,70.5-31.6,70.5-70.5C262.8,178.8,231.2,147.2,192.2,147.2z"/>
	<path fill="#B66916" d="M267.3,217.8c0-41.2-33.4-74.6-74.6-74.6c-0.6,0-1.3,0-1.9,0c0,0,0,0,0,0c-10.1,0.3-19.7,2.5-28.4,6.4l0,0
		c-1.1,0.5-2.2,1-3.2,1.5c0,0,0,0,0,0c-1,0.5-2.1,1.1-3.1,1.6c0,0-0.1,0-0.1,0c-1,0.6-2,1.1-2.9,1.8l-0.1,0.1
		c-0.9,0.6-1.9,1.2-2.8,1.9c-0.1,0-0.1,0.1-0.2,0.1c-0.9,0.6-1.8,1.3-2.6,1.9c-0.1,0.1-0.2,0.1-0.3,0.2c-0.8,0.7-1.7,1.3-2.5,2
		c-0.1,0.1-0.2,0.2-0.3,0.3c-0.8,0.7-1.6,1.4-2.3,2.1c-0.1,0.1-0.2,0.2-0.4,0.3c-0.7,0.7-1.4,1.4-2.2,2.1c-0.1,0.1-0.3,0.3-0.4,0.4
		c-0.7,0.7-1.3,1.4-2,2.1c-0.2,0.2-0.3,0.4-0.5,0.5c-0.6,0.7-1.2,1.4-1.8,2.1c-0.2,0.2-0.3,0.4-0.5,0.6c-0.6,0.7-1.1,1.4-1.6,2.1
		c-0.2,0.3-0.4,0.5-0.5,0.8c-0.5,0.7-1,1.4-1.5,2.1c-0.2,0.3-0.4,0.6-0.6,0.9c-0.5,0.7-0.9,1.4-1.3,2.1c-0.2,0.3-0.4,0.7-0.6,1
		c-0.4,0.7-0.8,1.4-1.2,2.1c-0.2,0.4-0.4,0.7-0.6,1.1c-0.4,0.7-0.7,1.4-1,2.1c-0.2,0.4-0.4,0.8-0.6,1.3c-0.3,0.7-0.6,1.3-0.9,2
		c-0.2,0.5-0.4,0.9-0.6,1.4c-0.3,0.7-0.5,1.3-0.8,2c-0.2,0.5-0.3,1-0.5,1.5c-0.2,0.6-0.4,1.3-0.6,1.9c-0.2,0.5-0.3,1.1-0.5,1.7
		c-0.2,0.6-0.4,1.2-0.5,1.9c-0.2,0.6-0.3,1.2-0.4,1.8c-0.1,0.6-0.3,1.2-0.4,1.8c-0.1,0.6-0.2,1.3-0.3,1.9c-0.1,0.6-0.2,1.2-0.3,1.7
		c-0.1,0.7-0.2,1.4-0.3,2.1c-0.1,0.5-0.1,1.1-0.2,1.6c-0.1,0.8-0.1,1.6-0.2,2.4c0,0.4-0.1,0.9-0.1,1.3c-0.1,1.3-0.1,2.5-0.1,3.8
		c0,1.3,0,2.5,0.1,3.8c0,0.5,0.1,0.9,0.1,1.3c0.1,0.8,0.1,1.6,0.2,2.4c0.1,0.5,0.1,1.1,0.2,1.6c0.1,0.7,0.2,1.4,0.3,2.1
		c0.1,0.6,0.2,1.2,0.3,1.7c0.1,0.6,0.2,1.3,0.3,1.9c0.1,0.6,0.3,1.2,0.4,1.8c0.1,0.6,0.3,1.2,0.4,1.8c0.2,0.6,0.3,1.2,0.5,1.8
		c0.2,0.6,0.3,1.1,0.5,1.7c0.2,0.6,0.4,1.3,0.6,1.9c0.2,0.5,0.3,1,0.5,1.5c0.2,0.7,0.5,1.3,0.8,2c0.2,0.5,0.4,0.9,0.5,1.4
		c0.3,0.7,0.6,1.3,0.9,2c0.2,0.4,0.4,0.8,0.6,1.3c0.3,0.7,0.7,1.4,1,2c0.2,0.4,0.4,0.8,0.6,1.1c0.4,0.7,0.8,1.4,1.2,2.1
		c0.2,0.3,0.4,0.7,0.6,1c0.4,0.7,0.9,1.4,1.3,2.1c0.2,0.3,0.4,0.6,0.6,0.9c0.1,0.2,0.2,0.3,0.4,0.5h3.8c-0.4,1.2-0.6,2.5-0.6,3.8
		c0,7.1,5.8,12.8,13.1,12.8c4.9,0,9.2-2.7,11.5-6.7c2.2,4,6.5,6.7,11.5,6.7c4.9,0,9.2-2.7,11.5-6.7c2.2,4,6.5,6.7,11.5,6.7
		c4.9,0,9.2-2.7,11.5-6.7c2.2,4,6.5,6.7,11.5,6.7c4.9,0,9.2-2.7,11.5-6.7c2.2,4,6.5,6.7,11.5,6.7c7.2,0,13-5.7,13-12.8
		c0-1.3-0.2-2.6-0.6-3.8h3.2C262.5,247.7,267.3,233.3,267.3,217.8z"/>
	<path fill="#CB8128" d="M270,217.8c0,42.9-34.8-35.3-77.7-35.3c-42.9,0-77.7,78.3-77.7,35.3c0-42.9,34.8-77.7,77.7-77.7
		C235.2,140,270,174.8,270,217.8z"/>
	<circle fill="#3C3C3B" cx="192.2" cy="169.5" r="60.1"/>
	<path fill="#EF874E" d="M249.4,166.2c0,31.6-25.6,57.1-57.1,57.1c-31.6,0-57.1-25.6-57.1-57.1c0-31.6,25.6-57.1,57.1-57.1
		C223.8,109.1,249.4,134.7,249.4,166.2z"/>
	<path fill="#A84720" d="M207.4,147.2c-5.4,0-10.1,3-12.5,7.4c-2.7-6.8-9.4-11.7-17.2-11.7c-10.3,0-18.6,8.3-18.6,18.6
		c0,10.3,8.3,18.6,18.6,18.6c7.8,0,14.5-4.8,17.2-11.7c2.4,4.4,7.1,7.4,12.5,7.4c7.9,0,14.3-6.4,14.3-14.3
		C221.7,153.6,215.3,147.2,207.4,147.2z"/>
	<path fill="#FFFFFF" d="M207.4,145.3c-5.4,0-10.1,3-12.5,7.4c-2.7-6.8-9.4-11.7-17.2-11.7c-10.3,0-18.6,8.3-18.6,18.6
		c0,10.3,8.3,18.6,18.6,18.6c7.8,0,14.5-4.8,17.2-11.7c2.4,4.4,7.1,7.4,12.5,7.4c7.9,0,14.3-6.4,14.3-14.3
		C221.7,151.7,215.3,145.3,207.4,145.3z"/>
	<g>
		<g>
			<path fill="#4E1412" d="M182.2,161.4c0,2.4-2,4.4-4.4,4.4c-2.4,0-4.4-2-4.4-4.4c0-2.4,2-4.4,4.4-4.4
				C180.2,157,182.2,158.9,182.2,161.4z"/>
		</g>
	</g>
	<g>
		<g>
			<path fill="#4E1412" d="M211.1,161.4c0,2.4-2,4.4-4.4,4.4c-2.4,0-4.4-2-4.4-4.4c0-2.4,2-4.4,4.4-4.4
				C209.1,157,211.1,158.9,211.1,161.4z"/>
		</g>
	</g>
	<g>
		<g>
			<path fill="#FFFFFF" d="M181,159.6c0,0.8-0.7,1.5-1.5,1.5c-0.8,0-1.5-0.7-1.5-1.5c0-0.8,0.7-1.5,1.5-1.5
				C180.3,158.1,181,158.8,181,159.6z"/>
		</g>
	</g>
	<g>
		<g>
			<circle fill="#FFFFFF" cx="208.2" cy="159.6" r="1.5"/>
		</g>
	</g>
	<g>
		<path fill="#422918" d="M192.6,108.8c-33.6,0.3-57.8,26.4-57.5,57.1c0,1,0,2,0.1,3c0.8-23.4,16.2-44.2,34.7-44.2
			c8.6,0,16.4,4.3,22.4,11.3c6-7,13.9-11.3,22.4-11.3c29.2,0,35,44.5,35,41.3C249.8,134.4,224.2,108.5,192.6,108.8z"/>
	</g>
	<g>
		<g>
			<g>
				<path fill="#F39E2B" d="M187.6,168.1l-6.3,5.2c-2.6,2.1-3.4,6.5-1.8,9.8l9.9,20.9c0.8,1.7,1.8,2.5,2.8,2.5v-40
					C190.6,166.5,188.9,167.1,187.6,168.1z"/>
			</g>
		</g>
		<g>
			<g>
				<path fill="#FBDD58" d="M195.1,204.1l9.9-20.9c1.6-3.3,0.8-7.7-1.8-9.8l-6.3-5.2c-1.3-1.1-3-1.6-4.6-1.6v40
					C193.3,206.6,194.3,205.8,195.1,204.1z"/>
			</g>
		</g>
	</g>
</g>
</svg>
